<?xml version="1.0" encoding="UTF-8"?>
<svg id="Ebene_2" data-name="Ebene 2" xmlns="http://www.w3.org/2000/svg" viewBox="0 0 600 140.83">
  <g id="Ebene_1-2" data-name="Ebene 1">
    <g>
      <path d="M51.16,96.85c7.72-12.31,23.74-16.37,37.22-17.85l28.73-3.17c.55-9.26-1.5-17.14-9.51-22.49-9.05-6.04-23.81-6.2-33.2-.85-7.22,3.9-11.78,10.66-12.71,19.01h-14.26c.9-8.2,4.2-15.48,9.58-21.55,12.61-13.96,33.41-17.2,50.62-11.2,14.09,4.91,23.53,17.12,23.95,32.34v68.2s-14.43.02-14.43.02l-.04-18.41c-6.05,14.34-23.23,20.69-37.87,19.84-12.08-.27-25.68-5.85-30.38-17.66-3.38-8.49-2.65-18.33,2.31-26.23ZM97.94,125.56c3.52-1.57,6.29-3.72,8.96-6.35,8.25-8.73,10.57-19.68,10.18-31.48l-29.3,3.27c-11.9,1.33-26.34,6.9-26.15,21.14.05,3.65.91,7.23,3.42,10,7.45,8.21,23.36,7.68,32.88,3.42Z" style="fill: currentColor;"/>
      <path d="M418.15,49.11c-24.98-1.67-37.07,20.29-37.1,42.65l-.07,47.53-14.64.03V37.41s14.62-.04,14.62-.04l.04,18.87c10.79-17.88,33.15-24.76,52.15-17.52,13.5,5.14,22,17.53,22.07,31.98v68.59s-14.61,0-14.61,0l-.2-67.02c-.04-12.71-9.97-22.35-22.28-23.17Z" style="fill: currentColor;"/>
      <path d="M569.71,140.39c-24.05,2.48-46.19-7.01-48.06-33.5l15.47.02c1.27,13.62,10.77,20.47,23.77,21.09,5.7.27,11.11-.53,15.99-3.37,7.52-4.38,10.62-13.8,6.21-21.42-2.92-5.04-11.04-8.12-16.46-9.62l-18.23-5.04c-5.26-1.46-10.25-3.6-14.63-6.66-5.7-3.97-8.79-9.75-9.23-16.56-.52-8.14,2.34-15.64,8.63-20.95,4.32-3.65,9.43-6.13,15.13-7.3,9.4-1.94,19.23-1.61,28.25,1.39,12.22,4.07,20.32,14.45,21.02,27.4l-15.32-.02c-.82-7.05-4.93-12.39-11.4-15.06-7.68-3.17-16.95-2.95-24.38.69-3.52,1.72-6.01,4.71-6.75,7.79-.94,3.96-.42,8.03,2.35,10.78,3.38,3.37,7.85,5.01,12.44,6.14l17.69,4.36c15.08,3.72,27.09,10.76,27.77,27.72.74,18.61-12.74,30.29-30.26,32.1Z" style="fill: currentColor;"/>
      <path d="M162.88,100.45c4,16,16.83,27.84,34.01,27.59,7.36-.11,14.31-2.09,20.18-6.45,5.38-3.97,9-9.48,10.07-16.21h14.63c-.7,6.31-2.97,11.95-6.6,17.16-10.48,14.53-28.18,19.82-45.56,17.87-15.43-1.74-28.54-10.77-36.13-24.19-9.17-16.21-9.22-39.08-.31-55.28,8.96-16.3,25.9-25.73,44.48-25.03,7.4.28,14.25,1.48,20.94,4.56,12.08,5.58,20.59,16.42,22.28,29.78h-14.89c-1.01-4.72-3.04-8.49-6.12-11.97-6.02-6.31-14.15-9.62-22.99-9.59-17.71-.55-31.38,12.92-34.48,29.62-1.38,7.43-1.35,14.83.48,22.14Z" style="fill: currentColor;"/>
      <polygon points=".14 139.32 0 127.29 7.26 127.2 7.26 21.11 1.75 20.91 1.77 9.01 21.82 9.03 21.83 127.22 29.05 127.28 29.05 139.31 .14 139.32" style="fill: currentColor;"/>
      <polygon points="476.65 139.32 476.59 127.46 483.91 127.36 483.91 49.43 478.2 49.31 478.21 37.39 498.46 37.36 498.47 127.36 505.69 127.47 505.71 139.31 476.65 139.32" style="fill: currentColor;"/>
      <path d="M501.28,6.75c1.23,3.73.15,7.48-2.1,10-2.51,2.82-5.99,3.91-9.77,3.29-5.33-.89-8.82-5.26-8.61-10.45.21-5.13,4.15-9.07,9.55-9.54,4.7-.4,9.35,1.94,10.93,6.7Z" style="fill: currentColor;"/>
      <path d="M348.98,105.25c-4.99,17.51-18.81,30.62-36.75,34.37-3.95.83-7.73,1.21-11.5,1.21-2.83,0-5.66-.21-8.55-.62-12.64-1.78-23.68-8.32-31.23-17.95l5.21-2.67v-.03s7-3.64,7-3.64l.64-.34c5.85,7.23,14.4,11.95,25.1,12.44.58.03,1.15.04,1.72.04,13.74,0,25.92-7.54,31.81-20.26,2.08-4.51,3.27-9.12,3.76-13.83.31-2.9.35-5.86.18-8.85-.04-.63-.08-1.26-.14-1.89-.11-1.11-.25-2.21-.43-3.3-.18-1.08-.4-2.14-.66-3.19l-.09.04-2.78,1.45-2.88,1.49-53.56,27.76-2.78,1.45-2.78,1.44-7.33,3.8-2.78,1.45-2.78,1.44c-.43-.73-.85-1.48-1.25-2.25-.09-.16-.18-.33-.26-.5-.48-.93-.92-1.87-1.33-2.83-.03-.04-.04-.08-.05-.13-.42-.96-.8-1.93-1.15-2.93-.26-.73-.51-1.47-.73-2.22-.08-.27-.16-.54-.24-.81-.29-1.03-.56-2.06-.81-3.11-.24-1.06-.46-2.12-.64-3.19h0c-.36-2.04-.61-4.1-.76-6.17-.66-8.82.57-17.76,3.75-25.99,5.94-15.37,18.68-26.38,34.76-29.77,4.03-.85,8.09-1.3,12.14-1.3,4.97,0,9.94.67,14.83,2.05,9.44,2.67,17.6,8.09,23.7,15.34l-11.93,6.18-.9.47c-5.99-6.71-14.47-10.96-24.89-11.26-.37-.01-.73-.02-1.1-.02-13.27,0-24.95,6.96-30.94,18.92-3.68,7.34-5.06,15.3-4.64,23.63.01.21.03.42.04.63l-.09.04c.07,1.13.18,2.25.33,3.35.14,1.1.33,2.18.55,3.24l.09-.04,2.89-1.5,2.92-1.51,53.04-27.5,2.79-1.45,2.79-1.45,12.8-6.64c.56.88,1.1,1.77,1.61,2.69l-.08.04c.51.91.98,1.84,1.43,2.78.03.04.04.08.06.11.45.95.86,1.9,1.25,2.88.39.97.75,1.96,1.08,2.97.29.88.55,1.76.79,2.67.04.13.07.27.1.4.28,1.04.51,2.1.73,3.15l.09-.04c1.96,9.69,1.55,19.75-1.16,29.25Z" style="fill: currentColor;"/>
    </g>
  </g>
</svg>